<svg viewBox="0 0 318 120" fill="none" xmlns="http://www.w3.org/2000/svg">
  <g filter="url(#filter0_d_420_5484)">
    <mask id="path-1-inside-1_420_5484" fill="white">
      <path fill-rule="evenodd" clip-rule="evenodd"
        d="M275.377 106H42.0435C42.0435 93.727 32.0943 83.7778 19.8213 83.7778V28.2222C32.0943 28.2222 42.0435 18.273 42.0435 6H275.377C275.377 18.273 285.326 28.2222 297.599 28.2222V83.7778C285.326 83.7778 275.377 93.727 275.377 106Z" />
    </mask>
    <path fill-rule="evenodd" clip-rule="evenodd"
      d="M275.377 106H42.0435C42.0435 93.727 32.0943 83.7778 19.8213 83.7778V28.2222C32.0943 28.2222 42.0435 18.273 42.0435 6H275.377C275.377 18.273 285.326 28.2222 297.599 28.2222V83.7778C285.326 83.7778 275.377 93.727 275.377 106Z"
      fill="#352D40" />
    <path
      d="M42.0435 106H39.2657V108.778H42.0435V106ZM275.377 106V108.778H278.155V106H275.377ZM19.8213 83.7778H17.0435V86.5556H19.8213V83.7778ZM19.8213 28.2222V25.4444H17.0435V28.2222H19.8213ZM42.0435 6V3.22222H39.2657V6H42.0435ZM275.377 6H278.155V3.22222H275.377V6ZM297.599 28.2222H300.377V25.4444H297.599V28.2222ZM297.599 83.7778V86.5556H300.377V83.7778H297.599ZM42.0435 108.778H275.377V103.222H42.0435V108.778ZM19.8213 86.5556C30.5602 86.5556 39.2657 95.2611 39.2657 106H44.8213C44.8213 92.1929 33.6284 81 19.8213 81V86.5556ZM17.0435 28.2222V83.7778H22.5991V28.2222H17.0435ZM39.2657 6C39.2657 16.7389 30.5602 25.4444 19.8213 25.4444V31C33.6284 31 44.8213 19.8071 44.8213 6H39.2657ZM275.377 3.22222H42.0435V8.77778H275.377V3.22222ZM297.599 25.4444C286.86 25.4444 278.155 16.7389 278.155 6H272.599C272.599 19.8071 283.792 31 297.599 31V25.4444ZM300.377 83.7778V28.2222H294.821V83.7778H300.377ZM278.155 106C278.155 95.2611 286.86 86.5556 297.599 86.5556V81C283.792 81 272.599 92.1929 272.599 106H278.155Z"
      fill="#EFD6A1" mask="url(#path-1-inside-1_420_5484)" />
    <mask id="path-3-inside-2_420_5484" fill="white">
      <path fill-rule="evenodd" clip-rule="evenodd"
        d="M263.206 17.1111H54.2146C51.9254 24.937 44.9227 30.7507 36.4878 31.2707V80.7293C44.9227 81.2493 51.9254 87.0629 54.2146 94.8889H263.206C265.495 87.0631 272.498 81.2496 280.932 80.7293V31.2706C272.498 30.7504 265.495 24.9369 263.206 17.1111Z" />
    </mask>
    <path fill-rule="evenodd" clip-rule="evenodd"
      d="M263.206 17.1111H54.2146C51.9254 24.937 44.9227 30.7507 36.4878 31.2707V80.7293C44.9227 81.2493 51.9254 87.0629 54.2146 94.8889H263.206C265.495 87.0631 272.498 81.2496 280.932 80.7293V31.2706C272.498 30.7504 265.495 24.9369 263.206 17.1111Z"
      fill="#352D40" />
    <path
      d="M54.2146 17.1111V14.3333H52.133L51.5486 16.3312L54.2146 17.1111ZM263.206 17.1111L265.872 16.3312L265.288 14.3333H263.206V17.1111ZM36.4878 31.2707L36.3169 28.4982L33.71 28.6589V31.2707H36.4878ZM36.4878 80.7293H33.71V83.3411L36.3169 83.5018L36.4878 80.7293ZM54.2146 94.8889L51.5486 95.6687L52.133 97.6666H54.2146V94.8889ZM263.206 94.8889V97.6666H265.288L265.872 95.6687L263.206 94.8889ZM280.932 80.7293L281.103 83.5018L283.71 83.341V80.7293H280.932ZM280.932 31.2706H283.71V28.6589L281.103 28.4981L280.932 31.2706ZM54.2146 19.8889H263.206V14.3333H54.2146V19.8889ZM36.6587 34.0432C46.2869 33.4496 54.2698 26.8166 56.8807 17.8909L51.5486 16.3312C49.581 23.0575 43.5585 28.0517 36.3169 28.4982L36.6587 34.0432ZM39.2656 80.7293V31.2707H33.71V80.7293H39.2656ZM56.8807 94.109C54.2698 85.1834 46.2869 78.5503 36.6587 77.9567L36.3169 83.5018C43.5585 83.9482 49.581 88.9424 51.5486 95.6687L56.8807 94.109ZM263.206 92.1111H54.2146V97.6666H263.206V92.1111ZM265.872 95.6687C267.84 88.9426 273.862 83.9485 281.103 83.5018L280.761 77.9568C271.133 78.5507 263.151 85.1836 260.54 94.109L265.872 95.6687ZM278.154 31.2706V80.7293H283.71V31.2706H278.154ZM260.54 17.8909C263.151 26.8164 271.133 33.4493 280.761 34.0432L281.103 28.4981C273.862 28.0515 267.84 23.0574 265.872 16.3312L260.54 17.8909Z"
      fill="#EFD6A1" fill-opacity="0.3" mask="url(#path-3-inside-2_420_5484)" />
    <rect x="10" y="57.2899" width="15.714" height="15.714" transform="rotate(-45 10 57.2899)"
      fill="#EFD6A1" />
    <rect x="284.802" y="57.2899" width="15.9935" height="15.9935"
      transform="rotate(-45 284.802 57.2899)" fill="#EFD6A1" />
    <path
      d="M91.32 47.8V57.8H94.88C96.3467 56.6 97.08 54.84 97.08 52.52C97.08 51.5333 96.88 50.6 96.48 49.72C96.1067 48.84 95.6533 48.2 95.12 47.8H91.32ZM85.92 71V43H96.76C98.5733 43.8 100 45.0267 101.04 46.68C102.107 48.3333 102.64 50.2667 102.64 52.48C102.64 54.6667 102.093 56.6933 101 58.56C99.9067 60.4267 98.2933 61.7467 96.16 62.52H91.32V71H85.92ZM105.568 71V43H111.048V66.36H119.368V71H105.568ZM134.012 71L133.172 66.56H126.852L126.012 71H120.572L125.972 43H134.252L139.372 71H134.012ZM129.932 48.2L128.372 57.52L127.492 62.28H132.492L131.572 57.52L130.012 48.2H129.932ZM149.549 71H143.709V61.68L137.789 43H143.229L145.709 51.52L146.549 56.44H146.709L147.549 51.52L150.029 43H155.469L149.549 61.68V71ZM176.291 71L168.811 55.52L168.611 55.6L168.851 60.32V71H163.811V43H167.851L175.211 59.08L175.411 59L174.971 54.08V43H180.011V71H176.291ZM196.89 43C198.756 44.52 200.143 46.56 201.05 49.12C201.956 51.68 202.41 54.32 202.41 57.04C202.41 59.7333 201.97 62.2933 201.09 64.72C200.21 67.1467 198.81 69.24 196.89 71H188.65C186.73 69.24 185.33 67.1467 184.45 64.72C183.57 62.2933 183.13 59.7333 183.13 57.04C183.13 54.32 183.583 51.68 184.49 49.12C185.396 46.56 186.783 44.52 188.65 43H196.89ZM191.33 66.36H194.21C194.876 65.5867 195.436 64.3333 195.89 62.6C196.37 60.84 196.61 58.9867 196.61 57.04C196.61 55.0933 196.383 53.2667 195.93 51.56C195.476 49.8267 194.916 48.5733 194.25 47.8H191.33C190.663 48.5733 190.09 49.8267 189.61 51.56C189.156 53.2667 188.93 55.0933 188.93 57.04C188.93 58.9867 189.156 60.84 189.61 62.6C190.09 64.3333 190.663 65.5867 191.33 66.36ZM219.329 71L216.529 54.48H216.369L213.489 71H207.889L204.009 43H209.369L210.489 51.24L211.329 60.52H211.529L213.009 51.28L214.249 43H218.769L219.969 51.28L221.489 60.52H221.689L222.489 51.24L223.609 43H228.969L225.089 71H219.329Z"
      fill="white" />
  </g>
  <defs>
    <filter id="filter0_d_420_5484" x="0" y="0" width="317.42" height="120"
      filterUnits="userSpaceOnUse" color-interpolation-filters="sRGB">
      <feFlood flood-opacity="0" result="BackgroundImageFix" />
      <feColorMatrix in="SourceAlpha" type="matrix"
        values="0 0 0 0 0 0 0 0 0 0 0 0 0 0 0 0 0 0 127 0" result="hardAlpha" />
      <feOffset dy="4" />
      <feGaussianBlur stdDeviation="5" />
      <feComposite in2="hardAlpha" operator="out" />
      <feColorMatrix type="matrix" values="0 0 0 0 0 0 0 0 0 0 0 0 0 0 0 0 0 0 0.25 0" />
      <feBlend mode="normal" in2="BackgroundImageFix" result="effect1_dropShadow_420_5484" />
      <feBlend mode="normal" in="SourceGraphic" in2="effect1_dropShadow_420_5484" result="shape" />
    </filter>
  </defs>
</svg>