<svg viewBox="0 0 1520 420" fill="none" xmlns="http://www.w3.org/2000/svg">
  <g filter="url(#filter0_b_0_1)">
    <mask id="path-1-inside-1_0_1" fill="white">
      <path fill-rule="evenodd" clip-rule="evenodd"
        d="M1509 0H11C11 6.07513 6.07513 11 0 11V420H1520V11C1513.92 11 1509 6.07513 1509 0Z" />
    </mask>
    <path fill-rule="evenodd" clip-rule="evenodd"
      d="M1509 0H11C11 6.07513 6.07513 11 0 11V420H1520V11C1513.92 11 1509 6.07513 1509 0Z"
      fill="url(#paint0_linear_0_1)" fill-opacity="0.7" />
    <path
      d="M11 0V-2H9V0H11ZM1509 0H1511V-2H1509V0ZM0 11V9H-2V11H0ZM0 420H-2V422H0V420ZM1520 420V422H1522V420H1520ZM1520 11H1522V9H1520V11ZM11 2H1509V-2H11V2ZM0 13C7.1797 13 13 7.1797 13 0H9C9 4.97056 4.97056 9 0 9V13ZM2 420V11H-2V420H2ZM1520 418H0V422H1520V418ZM1518 11V420H1522V11H1518ZM1520 9C1515.03 9 1511 4.97056 1511 0H1507C1507 7.17971 1512.82 13 1520 13V9Z"
      fill="url(#paint1_linear_0_1)" mask="url(#path-1-inside-1_0_1)" />
  </g>
  <rect x="15.5" y="15.5" width="1489" height="335" stroke="url(#paint2_linear_0_1)" />
  <defs>
    <filter id="filter0_b_0_1" x="-10" y="-10" width="1540" height="440"
      filterUnits="userSpaceOnUse" color-interpolation-filters="sRGB">
      <feFlood flood-opacity="0" result="BackgroundImageFix" />
      <feGaussianBlur in="BackgroundImageFix" stdDeviation="5" />
      <feComposite in2="SourceAlpha" operator="in" result="effect1_backgroundBlur_0_1" />
      <feBlend mode="normal" in="SourceGraphic" in2="effect1_backgroundBlur_0_1" result="shape" />
    </filter>
    <linearGradient id="paint0_linear_0_1" x1="760" y1="0" x2="760" y2="420"
      gradientUnits="userSpaceOnUse">
      <stop stop-color="#8E4522" />
      <stop offset="1" stop-color="#2B2B2B" stop-opacity="0" />
    </linearGradient>
    <linearGradient id="paint1_linear_0_1" x1="760" y1="0" x2="760" y2="420"
      gradientUnits="userSpaceOnUse">
      <stop stop-color="#FEECAC" />
      <stop offset="1" stop-color="white" stop-opacity="0" />
    </linearGradient>
    <linearGradient id="paint2_linear_0_1" x1="760" y1="15" x2="760" y2="351"
      gradientUnits="userSpaceOnUse">
      <stop stop-color="#F1E181" />
      <stop offset="1" stop-color="#414141" stop-opacity="0" />
    </linearGradient>
  </defs>
</svg>