<svg viewBox="0 0 340 120" fill="none" xmlns="http://www.w3.org/2000/svg">
  <g filter="url(#filter0_d_420_5500)">
    <mask id="path-1-inside-1_420_5500" fill="white">
      <path fill-rule="evenodd" clip-rule="evenodd"
        d="M298 6.00005L42.0434 6C42.0434 18.2133 32.1907 28.1254 20 28.2215V83.7785C32.1907 83.8746 42.0434 93.7867 42.0434 106L298 106C298 93.8012 307.829 83.8982 320 83.7789V28.2212C307.829 28.1019 298 18.1989 298 6.00005Z" />
    </mask>
    <path fill-rule="evenodd" clip-rule="evenodd"
      d="M298 6.00005L42.0434 6C42.0434 18.2133 32.1907 28.1254 20 28.2215V83.7785C32.1907 83.8746 42.0434 93.7867 42.0434 106L298 106C298 93.8012 307.829 83.8982 320 83.7789V28.2212C307.829 28.1019 298 18.1989 298 6.00005Z"
      fill="#954B28" />
    <path
      d="M42.0434 6V3.22222L39.2656 3.22222V6H42.0434ZM298 6.00005H300.778V3.22228L298 3.22228V6.00005ZM20 28.2215L19.9781 25.4438L17.2222 25.4655V28.2215H20ZM20 83.7785H17.2222V86.5345L19.9781 86.5562L20 83.7785ZM42.0434 106H39.2656V108.778H42.0434V106ZM298 106V108.778H300.778V106H298ZM320 83.7789L320.027 86.5566L322.778 86.5296V83.7789H320ZM320 28.2212H322.778V25.4705L320.027 25.4435L320 28.2212ZM42.0434 8.77778L298 8.77783V3.22228L42.0434 3.22222V8.77778ZM20.0219 30.9992C33.7369 30.8911 44.8212 19.7401 44.8212 6H39.2656C39.2656 16.6865 30.6445 25.3598 19.9781 25.4438L20.0219 30.9992ZM22.7778 83.7785V28.2215H17.2222V83.7785H22.7778ZM44.8212 106C44.8212 92.2599 33.7369 81.1089 20.0219 81.0008L19.9781 86.5562C30.6445 86.6402 39.2656 95.3135 39.2656 106H44.8212ZM298 103.222L42.0434 103.222V108.778L298 108.778V103.222ZM300.778 106C300.778 95.3262 309.378 86.6609 320.027 86.5566L319.973 81.0013C306.28 81.1354 295.222 92.2762 295.222 106H300.778ZM317.222 28.2212V83.7789H322.778V28.2212H317.222ZM295.222 6.00005C295.222 19.7239 306.28 30.8647 319.973 30.9988L320.027 25.4435C309.378 25.3392 300.778 16.6739 300.778 6.00005H295.222Z"
      fill="#EFD6A1" mask="url(#path-1-inside-1_420_5500)" />
    <mask id="path-3-inside-2_420_5500" fill="white">
      <path fill-rule="evenodd" clip-rule="evenodd"
        d="M282.76 17H54.2468C51.9485 25.0327 44.692 30.9719 36 31.2948V80.7052C44.6921 81.0281 51.9485 86.9672 54.2469 95H282.76C285.124 86.7383 292.732 80.6913 301.753 80.6913C301.836 80.6913 301.918 80.6918 302 80.6928V31.3072C301.918 31.3082 301.836 31.3087 301.753 31.3087C292.732 31.3087 285.124 25.2616 282.76 17Z" />
    </mask>
    <path fill-rule="evenodd" clip-rule="evenodd"
      d="M282.76 17H54.2468C51.9485 25.0327 44.692 30.9719 36 31.2948V80.7052C44.6921 81.0281 51.9485 86.9672 54.2469 95H282.76C285.124 86.7383 292.732 80.6913 301.753 80.6913C301.836 80.6913 301.918 80.6918 302 80.6928V31.3072C301.918 31.3082 301.836 31.3087 301.753 31.3087C292.732 31.3087 285.124 25.2616 282.76 17Z"
      fill="#954B28" />
    <path
      d="M54.2468 17V14.2222H52.1524L51.5762 16.2359L54.2468 17ZM282.76 17L285.43 16.2359L284.854 14.2222H282.76V17ZM36 31.2948L35.8969 28.5189L33.2222 28.6183V31.2948H36ZM36 80.7052H33.2222V83.3817L35.8969 83.481L36 80.7052ZM54.2469 95L51.5762 95.7641L52.1524 97.7778H54.2469V95ZM282.76 95V97.7778H284.854L285.43 95.7641L282.76 95ZM302 80.6928L301.966 83.4704L304.778 83.5048V80.6928H302ZM302 31.3072H304.778V28.4951L301.966 28.5296L302 31.3072ZM54.2468 19.7778H282.76V14.2222H54.2468V19.7778ZM36.1031 34.0706C46.0237 33.7021 54.2962 26.9254 56.9175 17.7641L51.5762 16.2359C49.6008 23.1401 43.3604 28.2416 35.8969 28.5189L36.1031 34.0706ZM38.7778 80.7052V31.2948H33.2222V80.7052H38.7778ZM56.9175 94.2359C54.2963 85.0746 46.0237 78.2979 36.1031 77.9293L35.8969 83.481C43.3604 83.7583 49.6008 88.8599 51.5762 95.7641L56.9175 94.2359ZM282.76 92.2222H54.2469V97.7778H282.76V92.2222ZM285.43 95.7641C287.462 88.6627 294.005 83.4691 301.753 83.4691V77.9135C291.46 77.9135 282.785 84.814 280.089 94.2359L285.43 95.7641ZM301.753 83.4691C301.824 83.4691 301.895 83.4695 301.966 83.4704L302.034 77.9152C301.94 77.9141 301.847 77.9135 301.753 77.9135V83.4691ZM299.222 31.3072V80.6928H304.778V31.3072H299.222ZM301.753 34.0864C301.847 34.0864 301.94 34.0859 302.034 34.0847L301.966 28.5296C301.895 28.5305 301.824 28.5309 301.753 28.5309V34.0864ZM280.089 17.7641C282.785 27.186 291.46 34.0864 301.753 34.0864V28.5309C294.005 28.5309 287.462 23.3373 285.43 16.2359L280.089 17.7641Z"
      fill="#EFD6A1" fill-opacity="0.3" mask="url(#path-3-inside-2_420_5500)" />
    <rect x="10" y="57.2899" width="15.714" height="15.714" transform="rotate(-45 10 57.2899)"
      fill="#EFD6A1" />
    <rect x="306.802" y="57.2899" width="15.9935" height="15.9935"
      transform="rotate(-45 306.802 57.2899)" fill="#EFD6A1" />
    <path
      d="M72.72 71L69.92 54.48H69.76L66.88 71H61.28L57.4 43H62.76L63.88 51.24L64.72 60.52H64.92L66.4 51.28L67.64 43H72.16L73.36 51.28L74.88 60.52H75.08L75.88 51.24L77 43H82.36L78.48 71H72.72ZM95.8009 71L94.9609 66.56H88.6409L87.8009 71H82.3609L87.7609 43H96.0409L101.161 71H95.8009ZM91.7209 48.2L90.1609 57.52L89.2809 62.28H94.2809L93.3609 57.52L91.8009 48.2H91.7209ZM105.588 47.8H99.5484V43H117.068V47.8H111.028V71H105.588V47.8ZM125.743 66.36H132.783V71H122.623C120.863 69.3467 119.529 67.2533 118.623 64.72C117.716 62.1867 117.263 59.5867 117.263 56.92C117.263 54.2267 117.769 51.64 118.783 49.16C119.796 46.68 121.303 44.6267 123.303 43H132.783V47.8H125.743C125.023 48.6267 124.396 49.96 123.863 51.8C123.356 53.64 123.103 55.4 123.103 57.08C123.103 58.76 123.356 60.52 123.863 62.36C124.396 64.2 125.023 65.5333 125.743 66.36ZM141.197 71H135.717V43H141.197V54.28H147.597V43H153.077V71H147.597V59.4H141.197V71ZM167.854 47.8H161.814V43H179.334V47.8H173.294V71H167.854V47.8ZM181.654 43H192.294C193.974 43.56 195.401 44.6 196.574 46.12C197.774 47.6133 198.374 49.4533 198.374 51.64C198.374 55.2133 196.961 57.84 194.134 59.52L198.174 71H192.574L189.174 60.8H187.054V71H181.654V43ZM187.054 47.8V56.32H190.494C190.948 56.2133 191.441 55.76 191.974 54.96C192.534 54.1333 192.814 53.1733 192.814 52.08C192.814 50.9867 192.574 50.0267 192.094 49.2C191.641 48.3733 191.188 47.9067 190.734 47.8H187.054ZM213.184 71L212.344 66.56H206.024L205.184 71H199.744L205.144 43H213.424L218.544 71H213.184ZM209.104 48.2L207.544 57.52L206.664 62.28H211.664L210.744 57.52L209.184 48.2H209.104ZM220.873 71V43H226.353V71H220.873ZM230.209 71V43H235.689V66.36H244.009V71H230.209ZM246.733 71V43H261.093V47.8H252.213V54.48H260.133V59.12H252.213V66.36H261.253V71H246.733ZM264.35 43H274.99C276.67 43.56 278.096 44.6 279.27 46.12C280.47 47.6133 281.07 49.4533 281.07 51.64C281.07 55.2133 279.656 57.84 276.83 59.52L280.87 71H275.27L271.87 60.8H269.75V71H264.35V43ZM269.75 47.8V56.32H273.19C273.643 56.2133 274.136 55.76 274.67 54.96C275.23 54.1333 275.51 53.1733 275.51 52.08C275.51 50.9867 275.27 50.0267 274.79 49.2C274.336 48.3733 273.883 47.9067 273.43 47.8H269.75Z"
      fill="white" />
  </g>
  <defs>
    <filter id="filter0_d_420_5500" x="0" y="0" width="339.42" height="120"
      filterUnits="userSpaceOnUse" color-interpolation-filters="sRGB">
      <feFlood flood-opacity="0" result="BackgroundImageFix" />
      <feColorMatrix in="SourceAlpha" type="matrix"
        values="0 0 0 0 0 0 0 0 0 0 0 0 0 0 0 0 0 0 127 0" result="hardAlpha" />
      <feOffset dy="4" />
      <feGaussianBlur stdDeviation="5" />
      <feComposite in2="hardAlpha" operator="out" />
      <feColorMatrix type="matrix" values="0 0 0 0 0 0 0 0 0 0 0 0 0 0 0 0 0 0 0.25 0" />
      <feBlend mode="normal" in2="BackgroundImageFix" result="effect1_dropShadow_420_5500" />
      <feBlend mode="normal" in="SourceGraphic" in2="effect1_dropShadow_420_5500" result="shape" />
    </filter>
  </defs>
</svg>